<?xml version="1.0" encoding="utf-8"?>
<!-- Generator: Adobe Illustrator 18.0.0, SVG Export Plug-In . SVG Version: 6.00 Build 0)  -->
<!DOCTYPE svg PUBLIC "-//W3C//DTD SVG 1.1//EN" "http://www.w3.org/Graphics/SVG/1.1/DTD/svg11.dtd">
<svg version="1.1" id="Layer_1" xmlns="http://www.w3.org/2000/svg" xmlns:xlink="http://www.w3.org/1999/xlink" x="0px" y="0px"
	 viewBox="0 0 1400 1400" enable-background="new 0 0 1400 1400" xml:space="preserve">
<g>
	<g>
		<path fill="#040416" d="M933.9,244c-36.7-4.5-78.9-13-117-17.7c-6.4-0.8-15.2,8.4-13.4,14.6c18.3,60.8,30.9,141.2,26,232.9
			c-4.5,82.7-19.4,157.6-40.4,214.5c-2.2,5.9,2.3,12.1,8.6,12c39.1-1.1,82.2-5.5,118.7-6.6c3.7-0.1,6.9-2.5,8.1-5.9
			c20.1-56.3,34.2-126.2,38.6-206.7c4.9-90.5-3.9-170-21.7-230.6C940.4,247,937.5,244.5,933.9,244z"/>
	</g>
	
		<linearGradient id="SVGID_1_" gradientUnits="userSpaceOnUse" x1="802.6666" y1="694.6849" x2="819.5159" y2="1185.5615" gradientTransform="matrix(0.9986 5.376213e-002 -5.376213e-002 0.9986 39.745 -35.038)">
		<stop  offset="0" style="stop-color:#262C3A"/>
		<stop  offset="1.286819e-002" style="stop-color:#292F3D"/>
		<stop  offset="0.1165" style="stop-color:#414752"/>
		<stop  offset="0.2269" style="stop-color:#525761"/>
		<stop  offset="0.3479" style="stop-color:#5C616A"/>
		<stop  offset="0.4994" style="stop-color:#5F646D"/>
		<stop  offset="0.6297" style="stop-color:#5B6069"/>
		<stop  offset="0.7647" style="stop-color:#4E545E"/>
		<stop  offset="0.9014" style="stop-color:#3A3F4C"/>
		<stop  offset="1" style="stop-color:#262C3A"/>
	</linearGradient>
	<path fill="url(#SVGID_1_)" d="M760.1,678.5l-0.5,475.5c-0.1,17.3,9,33.4,23.8,42.4l43.1,26.1l22.1-545.6L760.1,678.5z"/>
	
		<linearGradient id="SVGID_2_" gradientUnits="userSpaceOnUse" x1="823.4981" y1="900.6807" x2="964.9089" y2="900.6807" gradientTransform="matrix(0.9986 5.376213e-002 -5.376213e-002 0.9986 39.745 -35.038)">
		<stop  offset="8.556150e-002" style="stop-color:#000414"/>
		<stop  offset="0.1239" style="stop-color:#0C101F"/>
		<stop  offset="0.1903" style="stop-color:#2A2D3B"/>
		<stop  offset="0.2739" style="stop-color:#3E4450"/>
		<stop  offset="0.3027" style="stop-color:#464D59"/>
		<stop  offset="0.3964" style="stop-color:#333644"/>
		<stop  offset="0.4058" style="stop-color:#323543"/>
		<stop  offset="1" style="stop-color:#00000D"/>
	</linearGradient>
	<path fill="url(#SVGID_2_)" d="M820.3,646L808,1200c-0.4,14.9,12.7,26.5,27.4,24.3l61-9.2c10.4-1.6,18.5-9.7,20-20l84.2-565.1
		c2.4-15.9-11.3-29.6-27.2-27.2l-132.9,20.3C829.1,624.8,820.6,634.5,820.3,646z"/>
	
		<linearGradient id="SVGID_3_" gradientUnits="userSpaceOnUse" x1="899.0055" y1="635.6808" x2="881.7399" y2="1208.5841" gradientTransform="matrix(0.9986 5.376213e-002 -5.376213e-002 0.9986 39.745 -35.038)">
		<stop  offset="0.1016" style="stop-color:#000414"/>
		<stop  offset="0.1334" style="stop-color:#060A1A;stop-opacity:0.9224"/>
		<stop  offset="0.2584" style="stop-color:#1A1E2C;stop-opacity:0.617"/>
		<stop  offset="0.3842" style="stop-color:#262937;stop-opacity:0.3098"/>
		<stop  offset="0.5111" style="stop-color:#2A2D3B;stop-opacity:0"/>
		<stop  offset="0.667" style="stop-color:#272A38;stop-opacity:0.3189"/>
		<stop  offset="0.8004" style="stop-color:#1D1F2D;stop-opacity:0.5917"/>
		<stop  offset="0.9251" style="stop-color:#0D0E1C;stop-opacity:0.8469"/>
		<stop  offset="1" style="stop-color:#00000D"/>
	</linearGradient>
	<path fill="url(#SVGID_3_)" d="M813.7,648.9l-12.3,554c-0.4,14.9,12.7,26.5,27.4,24.3l61-9.2c10.4-1.6,18.5-9.7,20-20l84.2-565.1
		c2.4-15.9-11.3-29.6-27.2-27.2l-132.9,20.3C822.5,627.7,814,637.3,813.7,648.9z"/>
	<g>
		
			<radialGradient id="SVGID_4_" cx="789.0524" cy="900.699" r="164.4151" gradientTransform="matrix(0.9986 5.376213e-002 -5.376213e-002 0.9986 39.745 -35.038)" gradientUnits="userSpaceOnUse">
			<stop  offset="0" style="stop-color:#15192E"/>
			<stop  offset="0.1623" style="stop-color:#0F1327"/>
			<stop  offset="0.6137" style="stop-color:#040819"/>
			<stop  offset="1" style="stop-color:#000414"/>
		</radialGradient>
		<path fill="url(#SVGID_4_)" d="M798.6,1129l9.6-451.4l-48.1,0.9l-0.1,444c8.2,4.7,16.5,9.3,24.5,14.2
			C790.7,1140.4,798.4,1136.1,798.6,1129z"/>
	</g>
	<g>
		<g>
			<path fill="#00000E" d="M1087.9,625.6c-0.1,0-0.6,0-0.8-0.5c-0.2-0.5,0.1-0.8,0.2-0.9c18.4-20.1,49.8-65.9,54.2-146.8
				c4.6-85.7-21.6-134.7-37.6-156.4c-0.1-0.1-0.3-0.4-0.1-0.9c0.3-0.5,0.7-0.5,0.8-0.5l84.9,4.6c0.2,0,0.4,0.1,0.6,0.3
				c8,8.6,47.6,56.4,42.2,157.8c-5.1,95.3-49.8,139.8-58.7,147.8c-0.2,0.1-0.4,0.2-0.6,0.2L1087.9,625.6z"/>
		</g>
	</g>
	<g>
		<g>
			
				<linearGradient id="SVGID_5_" gradientUnits="userSpaceOnUse" x1="1126.6542" y1="450.4768" x2="1220.8567" y2="450.4768" gradientTransform="matrix(0.9986 5.376213e-002 -5.376213e-002 0.9986 39.745 -35.038)">
				<stop  offset="0" style="stop-color:#000011"/>
				<stop  offset="0.8396" style="stop-color:#292D3E"/>
			</linearGradient>
			<path fill="url(#SVGID_5_)" d="M1140.7,477.3c-0.2,3.1-0.4,6.1-0.6,9.1l93.8,5.1c0.2-3,0.5-6,0.6-9.1c0.2-4.5,0.4-8.8,0.5-13.1
				l-93.8-5.1C1141.1,468.5,1140.9,472.9,1140.7,477.3z"/>
			
				<linearGradient id="SVGID_6_" gradientUnits="userSpaceOnUse" x1="1124.0585" y1="418.0279" x2="1220.1128" y2="418.0279" gradientTransform="matrix(0.9986 5.376213e-002 -5.376213e-002 0.9986 39.745 -35.038)">
				<stop  offset="0" style="stop-color:#000011"/>
				<stop  offset="0.8396" style="stop-color:#292D3E"/>
			</linearGradient>
			<path fill="url(#SVGID_6_)" d="M1141.2,454.1l93.8,5.1c-0.1-7.8-0.4-15.3-1-22.4l-93.7-5C1140.8,438.8,1141.2,446.3,1141.2,454.1
				z"/>
			
				<linearGradient id="SVGID_7_" gradientUnits="userSpaceOnUse" x1="1118.0181" y1="385.5791" x2="1216.334" y2="385.5791" gradientTransform="matrix(0.9986 5.376213e-002 -5.376213e-002 0.9986 39.745 -35.038)">
				<stop  offset="0" style="stop-color:#00000D"/>
				<stop  offset="0.3992" style="stop-color:#0C0D1C"/>
				<stop  offset="1" style="stop-color:#242739"/>
			</linearGradient>
			<path fill="url(#SVGID_7_)" d="M1139.3,421.5l93.6,5c-0.9-8-2.1-15.5-3.6-22.5l-93.4-5C1137.4,406,1138.5,413.5,1139.3,421.5z"/>
			
				<linearGradient id="SVGID_8_" gradientUnits="userSpaceOnUse" x1="1109.297" y1="356.2579" x2="1209.2969" y2="356.2579" gradientTransform="matrix(0.9986 5.376213e-002 -5.376213e-002 0.9986 39.745 -35.038)">
				<stop  offset="0" style="stop-color:#00000D"/>
				<stop  offset="0.3992" style="stop-color:#0C0D1C"/>
				<stop  offset="1" style="stop-color:#242739"/>
			</linearGradient>
			<path fill="url(#SVGID_8_)" d="M1134.3,390.6l93.3,5c-1.7-7.3-3.7-14.1-5.8-20.3l-93-5C1130.8,376.7,1132.7,383.4,1134.3,390.6z"
				/>
			
				<linearGradient id="SVGID_9_" gradientUnits="userSpaceOnUse" x1="1099.2373" y1="332.4099" x2="1200.3243" y2="332.4099" gradientTransform="matrix(0.9986 5.376213e-002 -5.376213e-002 0.9986 39.745 -35.038)">
				<stop  offset="0" style="stop-color:#00000D"/>
				<stop  offset="0.3992" style="stop-color:#0C0D1C"/>
				<stop  offset="1" style="stop-color:#242739"/>
			</linearGradient>
			<path fill="url(#SVGID_9_)" d="M1127.1,365.2l92.9,5c-2.4-6.7-5-12.7-7.6-18l-92.4-5C1122.5,352.7,1124.9,358.7,1127.1,365.2z"/>
			
				<linearGradient id="SVGID_10_" gradientUnits="userSpaceOnUse" x1="1087.323" y1="311.6895" x2="1189.5393" y2="311.6895" gradientTransform="matrix(0.9986 5.376213e-002 -5.376213e-002 0.9986 39.745 -35.038)">
				<stop  offset="0" style="stop-color:#00000A"/>
				<stop  offset="0.2838" style="stop-color:#03040E"/>
				<stop  offset="0.5876" style="stop-color:#0D0E1B"/>
				<stop  offset="0.8996" style="stop-color:#1D2030"/>
				<stop  offset="1" style="stop-color:#242739"/>
			</linearGradient>
			<path fill="url(#SVGID_10_)" d="M1118.1,343.2l92.2,5c-3.4-6.7-6.8-12.2-9.8-16.6l-91.4-4.9
				C1112.1,331.4,1115.1,336.9,1118.1,343.2z"/>
			
				<linearGradient id="SVGID_11_" gradientUnits="userSpaceOnUse" x1="1079.1174" y1="295.6944" x2="1175.7695" y2="295.6944" gradientTransform="matrix(0.9986 5.376213e-002 -5.376213e-002 0.9986 39.745 -35.038)">
				<stop  offset="0" style="stop-color:#00000A"/>
				<stop  offset="0.2838" style="stop-color:#03040E"/>
				<stop  offset="0.5876" style="stop-color:#0D0E1B"/>
				<stop  offset="0.8996" style="stop-color:#1D2030"/>
				<stop  offset="1" style="stop-color:#242739"/>
			</linearGradient>
			<path fill="url(#SVGID_11_)" d="M1190.9,319.2c-0.1-0.2-0.4-0.2-0.6-0.3l-87.8-4.7c-0.1,0-0.6,0-0.8,0.5c-0.3,0.5,0,0.8,0.1,1
				c1.5,2.1,3.2,4.4,4.8,6.9l91.1,4.9C1194.7,323.5,1192.3,320.7,1190.9,319.2z"/>
			
				<linearGradient id="SVGID_12_" gradientUnits="userSpaceOnUse" x1="1124.3542" y1="482.1438" x2="1220.3256" y2="482.1438" gradientTransform="matrix(0.9986 5.376213e-002 -5.376213e-002 0.9986 39.745 -35.038)">
				<stop  offset="0" style="stop-color:#000011"/>
				<stop  offset="0.8396" style="stop-color:#292D3E"/>
			</linearGradient>
			<path fill="url(#SVGID_12_)" d="M1136,518l93.7,5c1.3-7,2.5-14.4,3.3-22.1l-93.8-5.1C1138.3,503.6,1137.2,510.9,1136,518z"/>
			
				<linearGradient id="SVGID_13_" gradientUnits="userSpaceOnUse" x1="1118.2675" y1="514.5927" x2="1216.6481" y2="514.5927" gradientTransform="matrix(0.9986 5.376213e-002 -5.376213e-002 0.9986 39.745 -35.038)">
				<stop  offset="0" style="stop-color:#00000D"/>
				<stop  offset="0.3992" style="stop-color:#0C0D1C"/>
				<stop  offset="1" style="stop-color:#242739"/>
			</linearGradient>
			<path fill="url(#SVGID_13_)" d="M1128.1,550.1l93.4,5c2.2-6.9,4.3-14.2,6-22l-93.6-5C1132.2,535.8,1130.3,543.2,1128.1,550.1z"/>
			
				<linearGradient id="SVGID_14_" gradientUnits="userSpaceOnUse" x1="1109.3623" y1="543.9139" x2="1209.479" y2="543.9139" gradientTransform="matrix(0.9986 5.376213e-002 -5.376213e-002 0.9986 39.745 -35.038)">
				<stop  offset="0" style="stop-color:#00000D"/>
				<stop  offset="0.3992" style="stop-color:#0C0D1C"/>
				<stop  offset="1" style="stop-color:#242739"/>
			</linearGradient>
			<path fill="url(#SVGID_14_)" d="M1117.7,577.7l92.9,5c2.8-6,5.5-12.5,8.1-19.5l-93.3-5C1123,565.1,1120.4,571.6,1117.7,577.7z"/>
			
				<linearGradient id="SVGID_15_" gradientUnits="userSpaceOnUse" x1="1099.0985" y1="567.7618" x2="1200.2875" y2="567.7618" gradientTransform="matrix(0.9986 5.376213e-002 -5.376213e-002 0.9986 39.745 -35.038)">
				<stop  offset="0" style="stop-color:#00000A"/>
				<stop  offset="0.3156" style="stop-color:#080915"/>
				<stop  offset="0.8613" style="stop-color:#1E2031"/>
				<stop  offset="1" style="stop-color:#242739"/>
			</linearGradient>
			<path fill="url(#SVGID_15_)" d="M1106.3,599.8l92.3,5c3.2-5.1,6.5-10.7,9.7-17.1l-92.8-5C1112.4,588.9,1109.3,594.6,1106.3,599.8
				z"/>
			
				<linearGradient id="SVGID_16_" gradientUnits="userSpaceOnUse" x1="1087.0693" y1="588.4822" x2="1189.3203" y2="588.4822" gradientTransform="matrix(0.9986 5.376213e-002 -5.376213e-002 0.9986 39.745 -35.038)">
				<stop  offset="0" style="stop-color:#00000A"/>
				<stop  offset="0.2838" style="stop-color:#03040E"/>
				<stop  offset="0.5876" style="stop-color:#0D0E1B"/>
				<stop  offset="0.8996" style="stop-color:#1D2030"/>
				<stop  offset="1" style="stop-color:#242739"/>
			</linearGradient>
			<path fill="url(#SVGID_16_)" d="M1093.2,619l91.4,4.9c3.5-4.1,7.4-9.2,11.6-15.4l-92.2-5C1100.3,609.4,1096.6,614.6,1093.2,619z"
				/>
			
				<linearGradient id="SVGID_17_" gradientUnits="userSpaceOnUse" x1="1078.892" y1="604.4773" x2="1175.5425" y2="604.4773" gradientTransform="matrix(0.9986 5.376213e-002 -5.376213e-002 0.9986 39.745 -35.038)">
				<stop  offset="0" style="stop-color:#00000A"/>
				<stop  offset="0.2838" style="stop-color:#03040E"/>
				<stop  offset="0.5876" style="stop-color:#0D0E1B"/>
				<stop  offset="0.8996" style="stop-color:#1D2030"/>
				<stop  offset="1" style="stop-color:#242739"/>
			</linearGradient>
			<path fill="url(#SVGID_17_)" d="M1084.6,629.2c-0.1,0.1-0.4,0.4-0.2,0.9c0.2,0.5,0.7,0.6,0.8,0.6l87.9,4.7c0.2,0,0.5-0.1,0.6-0.2
				c1.6-1.4,4.2-3.9,7.5-7.5l-91.1-4.9C1088.2,625.2,1086.4,627.3,1084.6,629.2z"/>
		</g>
	</g>
	
		<linearGradient id="SVGID_18_" gradientUnits="userSpaceOnUse" x1="1077.5157" y1="282.8042" x2="1077.5157" y2="625.413" gradientTransform="matrix(0.9986 5.376213e-002 -5.376213e-002 0.9986 39.745 -35.038)">
		<stop  offset="0" style="stop-color:#00000A"/>
		<stop  offset="0.492" style="stop-color:#080C1B"/>
		<stop  offset="1" style="stop-color:#00000A"/>
	</linearGradient>
	<path fill="url(#SVGID_18_)" d="M1144.2,479.1c-6.8,126.6-58.9,169.5-97.4,167.5c-25.7-1.4-10.4-75.7-5.1-173
		c5.2-97.3-3.4-176.9,22.3-175.5C1114.1,300.7,1149.9,373.3,1144.2,479.1z"/>
	<g>
		
			<linearGradient id="SVGID_19_" gradientUnits="userSpaceOnUse" x1="894.3494" y1="240.7276" x2="894.3494" y2="672.9922" gradientTransform="matrix(0.9986 5.376213e-002 -5.376213e-002 0.9986 39.745 -35.038)">
			<stop  offset="0" style="stop-color:#000414"/>
			<stop  offset="0.105" style="stop-color:#252936"/>
			<stop  offset="0.1356" style="stop-color:#181A27"/>
			<stop  offset="0.1808" style="stop-color:#0A0B18"/>
			<stop  offset="0.2347" style="stop-color:#020310"/>
			<stop  offset="0.3186" style="stop-color:#00000D"/>
			<stop  offset="0.5991" style="stop-color:#323543"/>
			<stop  offset="0.6036" style="stop-color:#333644"/>
			<stop  offset="0.6973" style="stop-color:#464D59"/>
			<stop  offset="0.7261" style="stop-color:#3E4450"/>
			<stop  offset="0.8097" style="stop-color:#2A2D3B"/>
			<stop  offset="0.8761" style="stop-color:#0C101F"/>
			<stop  offset="0.9144" style="stop-color:#000414"/>
		</linearGradient>
		<path fill="url(#SVGID_19_)" d="M1100.4,342.3c12.2,46,11.5,100.8,9.7,134.6c-2.7,49.4-16.7,97.1-31.6,143.9
			c-11.2,35.2-33.9,63.5-73.7,64.7c0,0-311,8.8-311,8.8l25.4-471c0,0,307.1,38.1,307.5,38.1C1067.7,266.4,1089.4,300.8,1100.4,342.3
			z"/>
		
			<linearGradient id="SVGID_20_" gradientUnits="userSpaceOnUse" x1="891.1406" y1="256.6605" x2="891.1406" y2="675.7038" gradientTransform="matrix(0.9986 5.376213e-002 -5.376213e-002 0.9986 39.745 -35.038)">
			<stop  offset="0" style="stop-color:#000414"/>
			<stop  offset="0.105" style="stop-color:#252936"/>
			<stop  offset="0.1356" style="stop-color:#181A27"/>
			<stop  offset="0.1808" style="stop-color:#0A0B18"/>
			<stop  offset="0.2347" style="stop-color:#020310"/>
			<stop  offset="0.3186" style="stop-color:#00000D"/>
			<stop  offset="0.5991" style="stop-color:#323543"/>
			<stop  offset="0.6036" style="stop-color:#333644"/>
			<stop  offset="0.6973" style="stop-color:#464D59"/>
			<stop  offset="0.7261" style="stop-color:#3E4450"/>
			<stop  offset="0.8097" style="stop-color:#2A2D3B"/>
			<stop  offset="0.8761" style="stop-color:#0C101F"/>
			<stop  offset="0.9144" style="stop-color:#000414"/>
		</linearGradient>
		<path fill="url(#SVGID_20_)" d="M1097,346.9c12.2,46,11.5,100.8,9.7,134.6c-2.7,49.4-16.7,97.1-31.6,143.9
			c-11.2,35.2-33.9,63.5-73.7,64.7c0,0-311,8.8-311,8.8l25.4-471c0,0,307.1,38.1,307.5,38.1C1064.2,271.1,1085.9,305.4,1097,346.9z"
			/>
		
			<radialGradient id="SVGID_21_" cx="630.0834" cy="457.22" r="184.5781" gradientTransform="matrix(0.9986 5.376213e-002 -0.1075 1.9971 64.3262 -491.5968)" gradientUnits="userSpaceOnUse">
			<stop  offset="0" style="stop-color:#464D59"/>
			<stop  offset="0.1703" style="stop-color:#292E3C"/>
			<stop  offset="0.3431" style="stop-color:#121726"/>
			<stop  offset="0.5048" style="stop-color:#050919"/>
			<stop  offset="0.6429" style="stop-color:#000414"/>
		</radialGradient>
		<path fill="url(#SVGID_21_)" d="M536.8,370.9l-8.5,157c-4.7,86.7,78.7,161.7,165.5,166.4l0,0c0,0,54.2-84.3,62.5-237.7
			c7.7-142.5-37.1-233.3-37.1-233.3l0,0C632.5,218.6,541.5,284.2,536.8,370.9z"/>
		<g>
			
				<linearGradient id="SVGID_22_" gradientUnits="userSpaceOnUse" x1="356.2021" y1="349.1754" x2="356.2021" y2="564.2574" gradientTransform="matrix(0.9986 5.376213e-002 -5.376213e-002 0.9986 39.745 -35.038)">
				<stop  offset="0" style="stop-color:#000414"/>
				<stop  offset="0.105" style="stop-color:#252936"/>
				<stop  offset="0.1356" style="stop-color:#181A27"/>
				<stop  offset="0.1808" style="stop-color:#0A0B18"/>
				<stop  offset="0.2347" style="stop-color:#020310"/>
				<stop  offset="0.3186" style="stop-color:#00000D"/>
				<stop  offset="0.5991" style="stop-color:#323543"/>
				<stop  offset="0.6036" style="stop-color:#333644"/>
				<stop  offset="0.6973" style="stop-color:#464D59"/>
				<stop  offset="0.7261" style="stop-color:#3E4450"/>
				<stop  offset="0.8097" style="stop-color:#2A2D3B"/>
				<stop  offset="0.8761" style="stop-color:#0C101F"/>
				<stop  offset="0.9144" style="stop-color:#000414"/>
			</linearGradient>
			<path fill="url(#SVGID_22_)" d="M550.3,450.3c-4.1,76.5-43.7,107.5-43.7,107.5l-321.1-17.3l12-222.2l321.1,17.3
				C518.6,335.6,554.7,369,550.3,450.3z"/>
			<g>
				<g opacity="0.91">
					<g>
						<path fill="#00000C" d="M519.6,334.6c-0.1-0.1-0.3-0.2-0.4-0.2l-8.9-0.5c0.2,0,0.3,0.1,0.4,0.2c5.9,6.3,35,41.4,31,115.8
							c-3.8,70-36.5,102.6-43.1,108.5c-0.1,0.1-0.3,0.2-0.4,0.1l8.9,0.5c0.2,0,0.3,0,0.4-0.1c6.5-5.8,39.3-38.5,43.1-108.5
							C554.6,376,525.5,340.9,519.6,334.6z"/>
					</g>
				</g>
				<g>
					
						<linearGradient id="SVGID_23_" gradientUnits="userSpaceOnUse" x1="517.8037" y1="351.1911" x2="517.8037" y2="578.629" gradientTransform="matrix(0.9986 5.376213e-002 -5.376213e-002 0.9986 39.745 -35.038)">
						<stop  offset="0" style="stop-color:#000414"/>
						<stop  offset="0.5529" style="stop-color:#464D59"/>
						<stop  offset="0.7848" style="stop-color:#161B2A"/>
						<stop  offset="0.9144" style="stop-color:#000414"/>
					</linearGradient>
					<path fill="url(#SVGID_23_)" d="M524.5,334.8c-0.1-0.1-0.3-0.2-0.4-0.2l-8.9-0.5c0.2,0,0.3,0.1,0.4,0.2
						c5.9,6.3,35,41.4,31,115.8c-3.8,70-36.5,102.6-43.1,108.5c-0.1,0.1-0.3,0.2-0.4,0.1l8.9,0.5c0.2,0,0.3,0,0.4-0.1
						c6.5-5.8,39.3-38.5,43.1-108.5C559.4,376.2,530.3,341.1,524.5,334.8z"/>
				</g>
			</g>
			
				<linearGradient id="SVGID_24_" gradientUnits="userSpaceOnUse" x1="504.4679" y1="455.6074" x2="604.3019" y2="455.6074" gradientTransform="matrix(0.9986 5.376213e-002 -5.376213e-002 0.9986 39.745 -35.038)">
				<stop  offset="0.1925" style="stop-color:#00000C"/>
				<stop  offset="1" style="stop-color:#00000C;stop-opacity:0.5"/>
			</linearGradient>
			<path fill="url(#SVGID_24_)" d="M583.8,334.2l-54.1-2.9c-3.6-0.2-5.8,3.9-3.7,6.8c10.5,14.2,30.3,49.6,26.9,112.4
				c-3.2,59.4-26.9,92.5-38.8,105.5c-2.4,2.7-0.7,6.9,2.9,7.1l54.2,2.9c1.1,0.1,2.2-0.3,3.1-1.1c7.2-6.4,40.5-39.8,44.3-111
				c4.1-75.7-25.5-111.6-31.9-118.5C585.9,334.8,584.9,334.3,583.8,334.2z"/>
			
				<linearGradient id="SVGID_25_" gradientUnits="userSpaceOnUse" x1="550.3738" y1="348.0184" x2="550.3738" y2="565.4388" gradientTransform="matrix(0.9986 5.376213e-002 -5.376213e-002 0.9986 39.745 -35.038)">
				<stop  offset="0" style="stop-color:#000414"/>
				<stop  offset="0.105" style="stop-color:#252936"/>
				<stop  offset="0.1356" style="stop-color:#181A27"/>
				<stop  offset="0.1808" style="stop-color:#0A0B18"/>
				<stop  offset="0.2347" style="stop-color:#020310"/>
				<stop  offset="0.3186" style="stop-color:#00000D"/>
				<stop  offset="0.5991" style="stop-color:#323543"/>
				<stop  offset="0.6036" style="stop-color:#333644"/>
				<stop  offset="0.6973" style="stop-color:#464D59"/>
				<stop  offset="0.7261" style="stop-color:#3E4450"/>
				<stop  offset="0.8097" style="stop-color:#2A2D3B"/>
				<stop  offset="0.8761" style="stop-color:#0C101F"/>
				<stop  offset="0.9144" style="stop-color:#000414"/>
			</linearGradient>
			<path fill="url(#SVGID_25_)" d="M517.2,559.6c-0.1,0-0.4,0-0.6-0.4c-0.1-0.4,0-0.6,0.1-0.7c13.5-14.8,36.6-48.4,39.8-107.8
				c3.4-62.9-15.9-98.9-27.6-114.8c-0.1-0.1-0.2-0.3-0.1-0.7c0.2-0.4,0.5-0.3,0.6-0.3l46.1,2.5c0.2,0,0.3,0.1,0.4,0.2
				c5.9,6.3,35,41.4,31,115.8c-3.8,70-36.5,102.6-43.1,108.5c-0.1,0.1-0.3,0.2-0.4,0.1L517.2,559.6z"/>
			
				<linearGradient id="SVGID_26_" gradientUnits="userSpaceOnUse" x1="137.7542" y1="455.2043" x2="205.0253" y2="455.2043" gradientTransform="matrix(0.9986 5.376213e-002 -5.376213e-002 0.9986 39.745 -35.038)">
				<stop  offset="0" style="stop-color:#121726"/>
				<stop  offset="0.5936" style="stop-color:#000414"/>
			</linearGradient>
			<path fill="url(#SVGID_26_)" d="M234.1,431.3c-3.3,61.1-24.2,109.7-46.6,108.5c-22.5-1.2-38-51.8-34.7-112.9
				s24.2-109.7,46.6-108.5S237.4,370.2,234.1,431.3z"/>
			<g>
				<path fill="#00000C" d="M202.5,318.6c-1.4-0.1-2.7,0-4.1,0.3c20.3,6.6,33.8,54.7,30.7,112.1s-21.7,103.8-42.6,108.2
					c1.3,0.4,2.6,0.7,4,0.8c22.5,1.2,43.3-47.4,46.6-108.5S224.9,319.8,202.5,318.6z"/>
			</g>
			<g opacity="0.45">
				<path d="M213.8,326.7c-16.5,13.9-30,53.9-32.6,101.7s6.5,89.1,21.5,104.6c16-15.3,28.9-54.8,31.4-101.8S228.1,343.6,213.8,326.7
					z"/>
				<path d="M213.8,326.7c-16.5,13.9-30,53.9-32.6,101.7s6.5,89.1,21.5,104.6c16-15.3,28.9-54.8,31.4-101.8S228.1,343.6,213.8,326.7
					z"/>
			</g>
			<g>
				
					<linearGradient id="SVGID_27_" gradientUnits="userSpaceOnUse" x1="196.8159" y1="349.5786" x2="196.8159" y2="564.7468" gradientTransform="matrix(0.9986 5.376213e-002 -5.376213e-002 0.9986 39.745 -35.038)">
					<stop  offset="0" style="stop-color:#000414"/>
					<stop  offset="0.5529" style="stop-color:#464D59"/>
					<stop  offset="0.7848" style="stop-color:#161B2A"/>
					<stop  offset="0.9144" style="stop-color:#000414"/>
				</linearGradient>
				<path fill="url(#SVGID_27_)" d="M199.4,318.4c-1.4-0.1-2.7,0-4.1,0.3c20.3,6.6,33.8,54.7,30.7,112.1
					c-3.1,57.4-21.7,103.8-42.6,108.2c1.3,0.4,2.6,0.7,4,0.8c22.5,1.2,43.3-47.4,46.6-108.5S221.9,319.6,199.4,318.4z"/>
			</g>
			<g>
				
					<linearGradient id="SVGID_28_" gradientUnits="userSpaceOnUse" x1="159.222" y1="345.9502" x2="159.222" y2="563.2728" gradientTransform="matrix(0.9986 5.376213e-002 -5.376213e-002 0.9986 39.745 -35.038)">
					<stop  offset="0" style="stop-color:#000414"/>
					<stop  offset="0.5529" style="stop-color:#464D59"/>
					<stop  offset="0.7848" style="stop-color:#161B2A"/>
					<stop  offset="0.9144" style="stop-color:#000414"/>
				</linearGradient>
				<path fill="url(#SVGID_28_)" d="M157.3,427.2c3.2-59.1,22.8-106.5,44.4-108.5c-0.7-0.1-1.5-0.2-2.2-0.3
					c-22.5-1.2-43.3,47.4-46.6,108.5s12.2,111.7,34.7,112.9c0.7,0,1.5,0,2.2,0C168.5,535.5,154.1,486.3,157.3,427.2z"/>
			</g>
		</g>
	</g>
	<g>
		<g>
			
				<linearGradient id="SVGID_29_" gradientUnits="userSpaceOnUse" x1="726.2351" y1="456.4434" x2="1130.193" y2="456.4434" gradientTransform="matrix(0.9986 5.376213e-002 -5.376213e-002 0.9986 39.745 -35.038)">
				<stop  offset="0.1925" style="stop-color:#00000C"/>
				<stop  offset="1" style="stop-color:#00000C;stop-opacity:0.5"/>
			</linearGradient>
			<path fill="url(#SVGID_29_)" d="M936.4,250.2c-42.9-5.3-93.7-11.6-135.4-16.8c-0.2,1.3-0.2,2.6,0.3,4
				c18.3,60.8,27.1,144.4,22.2,236c-4.5,82.7-19.4,157.6-40.4,214.5c-0.5,1.3-0.6,2.6-0.5,3.8c42.9-1.2,94.2-2.7,136.7-3.9
				c19.6-55.9,33.5-128,37.8-207.2C961.7,391.7,953.5,310.4,936.4,250.2z"/>
			
				<linearGradient id="SVGID_30_" gradientUnits="userSpaceOnUse" x1="859.0154" y1="227.0939" x2="859.0154" y2="685.2252" gradientTransform="matrix(0.9986 5.376213e-002 -5.376213e-002 0.9986 39.745 -35.038)">
				<stop  offset="0.1925" style="stop-color:#00000C"/>
				<stop  offset="1" style="stop-color:#00000C;stop-opacity:0.5"/>
			</linearGradient>
			<path fill="url(#SVGID_30_)" d="M936.4,250.2c-42.9-5.3-93.7-11.6-135.4-16.8c-0.2,1.3-0.2,2.6,0.3,4
				c18.3,60.8,27.1,144.4,22.2,236c-4.5,82.7-19.4,157.6-40.4,214.5c-0.5,1.3-0.6,2.6-0.5,3.8c42.9-1.2,94.2-2.7,136.7-3.9
				c19.6-55.9,33.5-128,37.8-207.2C961.7,391.7,953.5,310.4,936.4,250.2z"/>
		</g>
	</g>
	<g opacity="0.74">
		<g>
			<path fill="#00000C" d="M1100.4,342.3c-10.6-39.8-30.9-72.9-68.7-80.1c30.2,11.6,47.4,42,56.9,77.6
				c12.4,46.6,11.7,102.2,9.8,136.4c-2.7,50-17,98.4-32,145.9c-9.6,30.2-27.6,55.4-57.4,63.2c37.2-3,58.7-30.5,69.5-64.4
				c14.8-46.9,28.9-94.5,31.6-143.9C1111.9,443.1,1112.7,388.3,1100.4,342.3z"/>
		</g>
	</g>
	<g>
		
			<linearGradient id="SVGID_31_" gradientUnits="userSpaceOnUse" x1="870.7735" y1="227.4212" x2="870.7735" y2="685.5525" gradientTransform="matrix(0.9986 5.376213e-002 -5.376213e-002 0.9986 39.745 -35.038)">
			<stop  offset="0" style="stop-color:#001B3A"/>
			<stop  offset="0.3186" style="stop-color:#001733"/>
			<stop  offset="0.8097" style="stop-color:#0B4461"/>
			<stop  offset="0.8754" style="stop-color:#032745"/>
			<stop  offset="0.9144" style="stop-color:#001B3A"/>
		</linearGradient>
		<path fill="url(#SVGID_31_)" d="M939.5,244.3c-36.7-4.5-78.9-13-117-17.7c-6.4-0.8-11.4,5.2-9.6,11.4
			c18.3,60.8,27.1,144.4,22.2,236c-4.5,82.7-19.4,157.6-40.4,214.5c-2.2,5.9,2.3,12.1,8.6,12c39.1-1.1,82.2-5.5,118.7-6.6
			c3.7-0.1,6.9-2.5,8.1-5.9c20.1-56.3,34.2-126.2,38.6-206.7c4.9-90.5-3.9-170-21.7-230.6C946,247.3,943.1,244.8,939.5,244.3z"/>
	</g>
	<g>
		
			<linearGradient id="SVGID_32_" gradientUnits="userSpaceOnUse" x1="770.3348" y1="782.536" x2="770.3348" y2="939.4161" gradientTransform="matrix(1 3.151143e-003 -3.151143e-003 1 -14.1918 -20.1386)">
			<stop  offset="0" style="stop-color:#001B3A"/>
			<stop  offset="0.105" style="stop-color:#06405C"/>
			<stop  offset="0.1356" style="stop-color:#04314D"/>
			<stop  offset="0.1808" style="stop-color:#02223E"/>
			<stop  offset="0.2347" style="stop-color:#001A36"/>
			<stop  offset="0.3186" style="stop-color:#001733"/>
			<stop  offset="0.5991" style="stop-color:#144C69"/>
			<stop  offset="0.6036" style="stop-color:#144D6A"/>
			<stop  offset="0.6973" style="stop-color:#27647F"/>
			<stop  offset="0.7261" style="stop-color:#1F5B76"/>
			<stop  offset="0.8097" style="stop-color:#0B4461"/>
			<stop  offset="0.8754" style="stop-color:#032745"/>
			<stop  offset="0.9144" style="stop-color:#001B3A"/>
		</linearGradient>
		<path fill="url(#SVGID_32_)" d="M755.6,761.4l-28.7,30.8c-4.5,5.5-5.2,13.1-1.8,19.3l22.1,40.7c0,0,0.9,40.6,3.3,66
			c0.1,1.4,1.3,2.5,2.7,2.5l23.2-0.4l8-154.5l-25.3-4.8C757.9,760.1,756.4,760.4,755.6,761.4z"/>
		
			<linearGradient id="SVGID_33_" gradientUnits="userSpaceOnUse" x1="763.5031" y1="860.2551" x2="800.9573" y2="860.2551" gradientTransform="matrix(1 3.151143e-003 -3.151143e-003 1 -14.1918 -20.1386)">
			<stop  offset="0.1497" style="stop-color:#C6BBB5"/>
			<stop  offset="1" style="stop-color:#001733"/>
		</linearGradient>
		<path fill="url(#SVGID_33_)" d="M777.4,764l-26.8,29.6c-4.2,4.6-5,11.4-2,16.8l22.7,41.8c0,0,0.9,43.3,3.5,68.5l8.6,0.6l1-155.6
			L777.4,764z"/>
	</g>
	<g>
		
			<radialGradient id="SVGID_34_" cx="788.9043" cy="937.608" r="6.4174" gradientTransform="matrix(0.9986 5.376213e-002 -5.376213e-002 0.9986 39.745 -35.038)" gradientUnits="userSpaceOnUse">
			<stop  offset="0" style="stop-color:#15192E"/>
			<stop  offset="0.1623" style="stop-color:#0F1327"/>
			<stop  offset="0.6137" style="stop-color:#040819"/>
			<stop  offset="1" style="stop-color:#000414"/>
		</radialGradient>
		<circle fill="url(#SVGID_34_)" cx="778.3" cy="944.6" r="6.4"/>
		
			<radialGradient id="SVGID_35_" cx="787.1996" cy="936.6053" r="6.4174" gradientTransform="matrix(0.9986 5.376213e-002 -5.376213e-002 0.9986 39.745 -35.038)" gradientUnits="userSpaceOnUse">
			<stop  offset="0" style="stop-color:#DDDEF9"/>
			<stop  offset="1.878626e-002" style="stop-color:#DCD6EF"/>
			<stop  offset="0.1613" style="stop-color:#D49DA7"/>
			<stop  offset="0.2957" style="stop-color:#CE6D6C"/>
			<stop  offset="0.4179" style="stop-color:#C9483D"/>
			<stop  offset="0.5256" style="stop-color:#C52D1C"/>
			<stop  offset="0.6148" style="stop-color:#C31D07"/>
			<stop  offset="0.6743" style="stop-color:#C21700"/>
			<stop  offset="0.8428" style="stop-color:#8C0A00"/>
			<stop  offset="0.9626" style="stop-color:#630000"/>
		</radialGradient>
		<circle fill="url(#SVGID_35_)" cx="776.6" cy="943.5" r="6.4"/>
	</g>
	<g>
		
			<radialGradient id="SVGID_36_" cx="789.7064" cy="960.6705" r="6.4174" gradientTransform="matrix(0.9986 5.376213e-002 -5.376213e-002 0.9986 39.745 -35.038)" gradientUnits="userSpaceOnUse">
			<stop  offset="0" style="stop-color:#15192E"/>
			<stop  offset="0.1623" style="stop-color:#0F1327"/>
			<stop  offset="0.6137" style="stop-color:#040819"/>
			<stop  offset="1" style="stop-color:#000414"/>
		</radialGradient>
		<circle fill="url(#SVGID_36_)" cx="777.8" cy="967.7" r="6.4"/>
		
			<radialGradient id="SVGID_37_" cx="788.0018" cy="959.6678" r="6.4174" gradientTransform="matrix(0.9986 5.376213e-002 -5.376213e-002 0.9986 39.745 -35.038)" gradientUnits="userSpaceOnUse">
			<stop  offset="0" style="stop-color:#DDDEF9"/>
			<stop  offset="1.878626e-002" style="stop-color:#DCD6EF"/>
			<stop  offset="0.1613" style="stop-color:#D49DA7"/>
			<stop  offset="0.2957" style="stop-color:#CE6D6C"/>
			<stop  offset="0.4179" style="stop-color:#C9483D"/>
			<stop  offset="0.5256" style="stop-color:#C52D1C"/>
			<stop  offset="0.6148" style="stop-color:#C31D07"/>
			<stop  offset="0.6743" style="stop-color:#C21700"/>
			<stop  offset="0.8428" style="stop-color:#8C0A00"/>
			<stop  offset="0.9626" style="stop-color:#630000"/>
		</radialGradient>
		<circle fill="url(#SVGID_37_)" cx="776.2" cy="966.6" r="6.4"/>
	</g>
	<g>
		
			<linearGradient id="SVGID_38_" gradientUnits="userSpaceOnUse" x1="870.775" y1="232.0663" x2="870.775" y2="680.9001" gradientTransform="matrix(0.9986 5.376213e-002 -5.376213e-002 0.9986 39.745 -35.038)">
			<stop  offset="0" style="stop-color:#001B3A"/>
			<stop  offset="0.105" style="stop-color:#06405C"/>
			<stop  offset="0.1356" style="stop-color:#04314D"/>
			<stop  offset="0.1808" style="stop-color:#02223E"/>
			<stop  offset="0.2347" style="stop-color:#001A36"/>
			<stop  offset="0.3186" style="stop-color:#001733"/>
			<stop  offset="0.5991" style="stop-color:#144C69"/>
			<stop  offset="0.6036" style="stop-color:#144D6A"/>
			<stop  offset="0.6973" style="stop-color:#27647F"/>
			<stop  offset="0.7261" style="stop-color:#1F5B76"/>
			<stop  offset="0.8097" style="stop-color:#0B4461"/>
			<stop  offset="0.8754" style="stop-color:#032745"/>
			<stop  offset="0.9144" style="stop-color:#001B3A"/>
		</linearGradient>
		<path fill="url(#SVGID_38_)" d="M802.8,695.7c-1.3-0.1-2.4-0.7-3.2-1.8c-0.4-0.6-1-2-0.4-3.6c21.9-59.3,36.4-135.9,40.7-215.9
			c4.8-89.2-3.2-173.7-22.4-237.7c-0.4-1.3-0.1-2.7,0.7-3.7c0.8-1.1,2.1-1.6,3.4-1.5c0.1,0,0.2,0,0.3,0c19.2,2.4,39.7,5.7,59.5,9
			c19.3,3.2,39.3,6.5,57.5,8.7c1.6,0.2,3,1.4,3.4,2.9c18.7,63.6,26.1,142.8,21.5,228.9c-4.1,75.8-17.3,146.8-38.3,205.4
			c-0.6,1.6-2,2.7-3.7,2.7c-18,0.5-37.2,1.8-57.5,3.2c-20.3,1.4-41.4,2.8-61.2,3.4C803.1,695.7,802.9,695.7,802.8,695.7z"/>
	</g>
</g>
</svg>
